<mxfile host="app.diagrams.net" modified="2024-04-22T22:40:29.739Z" agent="Mozilla/5.0 (X11; Linux x86_64) AppleWebKit/537.36 (KHTML, like Gecko) Chrome/123.0.0.0 Safari/537.36" version="24.2.8" etag="vagg7V5OauQeqRnULwjb" type="github">
  <diagram name="Page-1" id="-d0ybHsOvABL9Db07u2k">
    <mxGraphModel>
      <root>
        <mxCell id="0" />
        <mxCell id="1" parent="0" />
      </root>
    </mxGraphModel>
  </diagram>
</mxfile>
